<svg id="Capa_1" enable-background="new 0 0 497 497" height="512" viewBox="0 0 497 497" width="512" xmlns="http://www.w3.org/2000/svg"><g><path d="m110.415 88.545h155.563v15h-155.563z" fill="#fffbdb" transform="matrix(.707 -.707 .707 .707 -12.793 161.206)"/><path d="m301.303 18.263h15v155.563h-15z" fill="#fbf0a8" transform="matrix(.707 -.707 .707 .707 22.532 246.488)"/><path d="m497 196.352v30l-60 30v-90z" fill="#fc7c49"/><path d="m30 151.352-30 15v60l467 104.3v-179.3z" fill="#fc954c"/><path d="m497 166.352v30h-30l-30-45z" fill="#f593ad"/><path d="m497 375.651-60-30v105l30 15h22.5c4.142 0 7.5-3.358 7.5-7.5v-22.5l-15-15 15-15z" fill="#f593ad"/><path d="m497 143.852v22.5h-30l-30-15.002 30-14.998h22.5c4.142 0 7.5 3.357 7.5 7.5z" fill="#fc7c49"/><path d="m299.71 136.352h-292.21c-4.142 0-7.5 3.358-7.5 7.5v22.5h121.42c22.06 0 43.81 5.13 63.54 15 9.86 4.93 20.24 8.68 30.9 11.2 10.66 2.51 21.61 3.8 32.64 3.8h218.5v-45z" fill="#faaac0"/><path d="m497 405.652v30h-30l-30-15 30-15z" fill="#fc7c49"/><path d="m467 465.652h-459.5c-4.142 0-7.5-3.358-7.5-7.5v-82.5l467-104.3z" fill="#faaac0"/><path d="m467 405.652v30h-333.82c-8.28 0-15-6.71-15-15 0-8.28 6.72-15 15-15z" fill="#fc954c"/><path d="m467 136.352v30h-137.29c-16.57 0-30-13.43-30-30z" fill="#fc954c"/><path d="m497 226.352v149.3h-30l-60-74.65 60-74.65z" fill="#fbf0a8"/><path d="m0 226.352h467v149.3h-467z" fill="#fffbdb"/><circle cx="248.5" cy="46.348" fill="#60b5d6" r="15"/><g fill="#5873a6"><path d="m304.009 264.028c-20.402 0-37 16.598-37 37s16.598 37 37 37 37-16.598 37-37-16.598-37-37-37zm0 59c-12.131 0-22-9.869-22-22s9.869-22 22-22 22 9.869 22 22-9.869 22-22 22z"/><path d="m412.857 270.975c-.804-3.929-4.16-6.83-8.164-7.056-3.985-.222-7.664 2.281-8.902 6.095-.028.086-.055.173-.08.26l-10.523 36.917-10.914-36.993c-.026-.088-.054-.176-.083-.263-1.275-3.803-4.961-6.271-8.966-6.007-4.004.267-7.331 3.205-8.108 7.234l-10.413 57.695c-.735 4.076 1.973 7.977 6.049 8.713 4.073.732 7.978-1.972 8.713-6.049l5.792-32.096 9.57 32.437c.026.09.055.179.084.268 1.213 3.607 4.575 6.023 8.378 6.022 3.866-.02 7.227-2.474 8.406-6.108.028-.086.055-.173.08-.261l9.238-32.409 6.158 32.223c.777 4.07 4.712 6.735 8.774 5.959 4.068-.777 6.736-4.706 5.958-8.774z"/><path d="m94.652 264.43c-4.074-.733-7.978 1.972-8.713 6.049l-5.792 32.095-9.57-32.436c-.026-.089-.054-.177-.083-.265-1.211-3.609-4.574-6.025-8.378-6.025-3.868.02-7.228 2.475-8.407 6.11-.028.085-.054.172-.079.258l-9.238 32.408-6.158-32.222c-.777-4.068-4.704-6.736-8.774-5.959-4.069.777-6.736 4.706-5.959 8.774l11.047 57.802c.8 3.93 4.156 6.833 8.161 7.061.168.009.335.014.502.014 3.806 0 7.217-2.454 8.404-6.109.028-.086.055-.173.08-.26l10.523-36.917 10.914 36.992c.026.089.054.178.083.266 1.278 3.805 4.978 6.283 8.97 6.004 4.004-.269 7.33-3.208 8.103-7.233l10.414-57.695c.735-4.075-1.973-7.976-6.05-8.712z"/><path d="m191.926 323.102h-13.247v-51.697c0-4.142-3.358-7.5-7.5-7.5s-7.5 3.358-7.5 7.5v59.197c0 4.142 3.358 7.5 7.5 7.5h20.747c4.142 0 7.5-3.358 7.5-7.5s-3.358-7.5-7.5-7.5z"/><path d="m259.553 316.546c-3.171-2.664-7.902-2.252-10.566.92-.517.615-1.073 1.189-1.649 1.703-2.968 2.643-6.76 3.983-11.271 3.983-12.199 0-22.123-9.924-22.123-22.123s9.924-22.124 22.123-22.124c4.434 0 8.709 1.305 12.364 3.774 3.433 2.319 8.095 1.416 10.414-2.016 2.318-3.433 1.416-8.095-2.017-10.414-6.144-4.15-13.322-6.344-20.761-6.344-20.47 0-37.123 16.653-37.123 37.124 0 20.47 16.653 37.123 37.123 37.123 8.184 0 15.53-2.69 21.249-7.783 1.115-.994 2.178-2.09 3.157-3.256 2.664-3.173 2.252-7.903-.92-10.567z"/><path d="m142.916 278.905c4.142 0 7.5-3.358 7.5-7.5s-3.358-7.5-7.5-7.5h-24.736c-4.142 0-7.5 3.358-7.5 7.5v58.706c0 4.142 3.358 7.5 7.5 7.5h24.736c4.142 0 7.5-3.358 7.5-7.5s-3.358-7.5-7.5-7.5h-17.236v-14.353h15.413c4.142 0 7.5-3.358 7.5-7.5s-3.358-7.5-7.5-7.5h-15.413v-14.353z"/><path d="m466.134 322.689h-17.236v-14.353h15.412c4.143 0 7.5-3.358 7.5-7.5s-3.357-7.5-7.5-7.5h-15.412v-14.353h17.236c4.143 0 7.5-3.358 7.5-7.5s-3.357-7.5-7.5-7.5h-24.736c-4.143 0-7.5 3.358-7.5 7.5v58.706c0 4.142 3.357 7.5 7.5 7.5h24.736c4.143 0 7.5-3.358 7.5-7.5s-3.358-7.5-7.5-7.5z"/></g></g></svg>