<svg id="Capa_1" enable-background="new 0 0 512 512" height="512" viewBox="0 0 512 512" width="512" xmlns="http://www.w3.org/2000/svg"><g><g><path d="m286.684 435.89h-172.644c-15.747 0-38.851-11-40.591-26.65l-3.467-195.339 63.858-38.103h227.184l113.867 38.103-13.193 118.664-122.778 4.195z" fill="#ffc269"/></g><g><path d="m91.606 408.4-25.861-232.601h-32.872l25.86 232.601c1.74 15.651 14.969 27.49 30.716 27.49h32.873c-15.747 0-28.976-11.84-30.716-27.49z" fill="#ffa95f"/></g><g><path d="m492 213.901h-444.44c-11.046 0-30.72-8.954-30.72-20l-3.84-31.879c0-11.046 22.117-20 33.162-20h445.838c11.046 0 20 8.954 20 20v31.88c0 11.045-8.954 19.999-20 19.999z" fill="#f79a54"/></g><g><path d="m32.873 193.298v-30.672c0-11.379 9.225-20.604 20.604-20.604h-32.873c-11.379 0-20.604 9.224-20.604 20.603v30.672c0 11.379 9.225 20.604 20.604 20.604h32.873c-11.38 0-20.604-9.224-20.604-20.603z" fill="#e8833f"/></g><g><path d="m257.752 394.563h-3.504c-11.046 0-20-8.954-20-20v-101.762c0-11.046 8.954-20 20-20h3.504c11.046 0 20 8.954 20 20v101.762c0 11.046-8.954 20-20 20z" fill="#f49751"/></g><g><g><g><path d="m158.976 394.563h-3.504c-11.046 0-20-8.954-20-20v-101.762c0-11.046 8.954-20 20-20h3.504c11.046 0 20 8.954 20 20v101.762c0 11.046-8.955 20-20 20z" fill="#f49751"/></g></g></g><g><path d="m458.335 362.809 3.362-30.243c-18.012-12.292-39.764-19.49-63.168-19.49-7.528 0-14.885.744-22.003 2.163-7.549 1.505-11.482 28.421-18.408 31.361-7.73 3.281-18.366-17.247-25.099-12.397-28.343 20.414-46.83 53.695-46.83 91.213 0 3.532.172 7.025.492 10.475h25.262l68.257-73.691z" fill="#ffa95f"/></g><g><path d="m354.777 340.36-9.137 3.84-12.616-9.993v-61.406c0-11.046 8.954-20 20-20h3.504c11.046 0 20 8.954 20 20v42.444z" fill="#f49751"/></g><g><path d="m353.628 394.564h2.297c11.379 0 20.604-9.225 20.604-20.604v-58.715c-15.975 3.185-30.739 9.768-43.504 18.962v39.753c-.001 11.379 9.224 20.604 20.603 20.604z" fill="#e09322"/></g><g><path d="m435.524 167.292c1.928 9.337 11.06 15.344 20.397 13.416s15.344-11.06 13.416-20.397l-30.253-146.538c-1.656-8.02-8.718-13.773-16.907-13.773-10.937 0-19.118 10.042-16.906 20.753z" fill="#766e6e"/></g><g><path d="m42.663 160.311c-1.905 9.229 3.941 18.258 13.094 20.327 9.438 2.134 18.854-4.313 20.811-13.789l30.161-146.095c2.211-10.712-5.969-20.754-16.906-20.754-8.189 0-15.251 5.753-16.906 13.773z" fill="#766e6e"/></g><g><path d="m398.531 339.76c-47.819 0-77.941 37.836-77.941 85.655 0 47.819 30.121 85.525 77.941 85.525 3.316 0 6.587.874 9.806.511 43.203-4.87 76.779-41.532 76.779-86.036 0-44.441-33.481-81.062-76.595-86.015-3.279-.376-6.612.36-9.99.36z" fill="#e5646e"/></g><g><path d="m335.088 425.415c0-43.893 32.669-80.134 75.014-85.792-3.787-.506-7.645-.792-11.571-.792-47.819 0-86.585 38.765-86.585 86.585 0 47.819 38.765 86.585 86.585 86.585 3.926 0 7.783-.286 11.571-.792-42.345-5.66-75.014-41.9-75.014-85.794z" fill="#db4655"/></g><path d="m440.942 417.689h-34.685v-34.684c0-4.267-3.459-7.726-7.726-7.726s-7.726 3.459-7.726 7.726v34.684h-34.685c-4.268 0-7.726 3.459-7.726 7.726s3.459 7.726 7.726 7.726h34.684v34.685c0 4.267 3.459 7.726 7.726 7.726s7.726-3.459 7.726-7.726v-34.685h34.685c4.268 0 7.726-3.459 7.726-7.726.001-4.267-3.458-7.726-7.725-7.726z" fill="#eceaec"/></g></svg>