<svg height="512" viewBox="0 0 64 64" width="512" xmlns="http://www.w3.org/2000/svg"><g id="Filled_outline" data-name="Filled outline"><path d="m20 37h24v20h-24z" fill="#195c85"/><path d="m24 49a2.985 2.985 0 0 1 -1-4 2.71 2.71 0 0 1 3-1c1.28.465 1.558 2.1 2 2 .581-.128-.26-2.867 1-4 1.216-1.094 4.186-.5 5 1 .671 1.239-.214 2.925 0 3 .286.1.975-3.234 3-4a3.747 3.747 0 0 1 4 1c1.255 1.485 1.024 4.222-1 6" fill="#8ec13f"/><path d="m23 11h18v20h-18z" fill="#ffd782"/><path d="m23 23a4 4 0 0 1 0-8z" fill="#f9bb4b"/><path d="m41 15a4 4 0 0 1 0 8z" fill="#f9bb4b"/><path d="m39 5c-.6 0-.633.581-1 1a3.566 3.566 0 0 0 -2-1h-1.084a2.735 2.735 0 0 0 -2.916-2 2.735 2.735 0 0 0 -2.916 2h-1.084a3.238 3.238 0 0 0 -2 .69c-.367-.42-.4-.69-1-.69a2 2 0 0 0 -2 2v4h18v-4a2 2 0 0 0 -2-2z" fill="#394d5c"/><path d="m14 29v8h6v6h-8a4 4 0 0 1 -4-4v-10z" fill="#2d75bb"/><path d="m8 29v-7h6a2.006 2.006 0 0 1 2 2v3a2.006 2.006 0 0 1 -2 2z" fill="#ffd782"/><path d="m50 29v8h-6v6h8a4 4 0 0 0 4-4v-10z" fill="#2d75bb"/><path d="m56 29v-7h-6a2.006 2.006 0 0 0 -2 2v3a2.006 2.006 0 0 0 2 2z" fill="#ffd782"/><path d="m8 15h4v7h-4z" fill="#7fcac9"/><path d="m10 16a4 4 0 0 1 -4-4 8.081 8.081 0 0 1 1-3.523c.733-1.368 1.805-2.477 3-2.477 1.2 0 2.267 1.109 3 2.477a8.081 8.081 0 0 1 1 3.523 4 4 0 0 1 -4 4z" fill="#50b3c9"/><path d="m52 16h4v6h-4z" fill="#7fcac9"/><path d="m58 5a2 2 0 0 0 -2 2 2 2 0 0 0 -4 0 2 2 0 0 0 -4 0v5a4 4 0 0 0 4 4h4a4 4 0 0 0 4-4v-5a2 2 0 0 0 -2-2z" fill="#50b3c9"/><path d="m29 37h6a0 0 0 0 1 0 0v1a3 3 0 0 1 -3 3 3 3 0 0 1 -3-3v-1a0 0 0 0 1 0 0z" fill="#ffd782"/><path d="m3 57h58v4h-58z" fill="#d3843d"/><path d="m24 49h16a0 0 0 0 1 0 0 8 8 0 0 1 -8 8 8 8 0 0 1 -8-8 0 0 0 0 1 0 0z" fill="#f4f4e6"/><circle cx="51" cy="53" fill="#e1462b" r="3"/><path d="m18 53h-4.107a1.892 1.892 0 0 1 -1.893-1.893 2.209 2.209 0 0 0 -2-2.08 1.844 1.844 0 0 0 -2 1.973v2a4 4 0 0 0 4 4h6a2 2 0 0 0 2-2 2 2 0 0 0 -2-2z" fill="#9b1e5a"/><path d="m26 14h2v2h-2z"/><path d="m36 14h2v2h-2z"/><path d="m42 7a3 3 0 0 0 -3-3 1.579 1.579 0 0 0 -1.25.566 3.779 3.779 0 0 0 -1.75-.566h-.383a3.826 3.826 0 0 0 -3.617-2 3.826 3.826 0 0 0 -3.617 2h-.383a4.938 4.938 0 0 0 -1.8.39 1.771 1.771 0 0 0 -1.2-.39 3 3 0 0 0 -3 3v7.1a5 5 0 0 0 0 9.8v7.1a1 1 0 0 0 1 1h18a1 1 0 0 0 1-1v-7.1a5 5 0 0 0 0-9.8zm-20 14.829a3 3 0 0 1 0-5.658zm18 8.171h-16v-18h16zm0-20h-16v-3a1 1 0 0 1 .975-.994c.007.01.173.228.273.342a1.021 1.021 0 0 0 1.5.009 2.664 2.664 0 0 1 1.252-.357h1.083a1 1 0 0 0 .975-.774c.256-1.107 1.442-1.226 1.942-1.226s1.686.119 1.942 1.226a1 1 0 0 0 .975.774h1.083a2.814 2.814 0 0 1 1.249.658 1.028 1.028 0 0 0 1.5 0 4.59 4.59 0 0 0 .424-.642 1 1 0 0 1 .827.984zm4 9a3.006 3.006 0 0 1 -2 2.829v-5.658a3.006 3.006 0 0 1 2 2.829z"/><path d="m31 16h2v4h-2z"/><path d="m61 56h-7.382a3.98 3.98 0 0 0 -1.829-6.92 1.044 1.044 0 0 1 .093-.609 1.517 1.517 0 0 1 1.808-.52l.62-1.9a3.508 3.508 0 0 0 -4.192 1.48 3 3 0 0 0 -.33 1.679 3.963 3.963 0 0 0 -1.406 6.79h-3.382v-12h7a5.006 5.006 0 0 0 5-5v-22.1a5.009 5.009 0 0 0 4-4.9v-5a3 3 0 0 0 -5-2.234 2.994 2.994 0 0 0 -4 0 3 3 0 0 0 -5 2.234v5a5.009 5.009 0 0 0 4 4.9v4.1h-1a3 3 0 0 0 -3 3v3a3 3 0 0 0 2 2.816v6.184h-34v-6.184a3 3 0 0 0 2-2.816v-3a3 3 0 0 0 -3-3h-1v-5.026a4.977 4.977 0 0 0 2-3.974c0-2.4-1.947-7-5-7s-5 4.6-5 7a4.977 4.977 0 0 0 2 3.974v23.026a5.006 5.006 0 0 0 5 5h7v8.184a2.966 2.966 0 0 0 -1-.184h-4.107a.893.893 0 0 1 -.893-.893 3.2 3.2 0 0 0 -1-2.219 2.892 2.892 0 0 0 -2.023-.861 2.838 2.838 0 0 0 -2.977 2.973v2a4.948 4.948 0 0 0 1.026 3h-5.026a1 1 0 0 0 -1 1v4a1 1 0 0 0 1 1h58a1 1 0 0 0 1-1v-4a1 1 0 0 0 -1-1zm-6-35h-2v-4h2zm-6-9v-5a1 1 0 0 1 2 0v5h2v-5a1 1 0 0 1 2 0v5h2v-5a1 1 0 0 1 2 0v5a3 3 0 0 1 -3 3h-4a3 3 0 0 1 -3-3zm0 12a1 1 0 0 1 1-1h5v5h-5a1 1 0 0 1 -1-1zm-4 14h5a1 1 0 0 0 1-1v-7h4v9a3 3 0 0 1 -3 3h-7zm6 13a2 2 0 1 1 -2 2 2 2 0 0 1 2-2zm-15-13h7v18h-5.356a8.982 8.982 0 0 0 3.335-6.582c2.032-2.057 2.416-5.132.785-7.064a4.767 4.767 0 0 0 -5.118-1.29 4.279 4.279 0 0 0 -1.8 1.391 3.458 3.458 0 0 0 -.909-.975 3.983 3.983 0 0 0 2.063-3.48zm-4 18a7.011 7.011 0 0 1 -6.929-6h13.858a7.011 7.011 0 0 1 -6.929 6zm2-18a2 2 0 0 1 -4 0zm-4.332 4.743a2.218 2.218 0 0 1 1.693-.254 2.546 2.546 0 0 1 1.76.988 2.789 2.789 0 0 1 -.042 1.765c-.092.376-.335 1.376.589 1.7.965.335 1.38-.616 1.653-1.248.358-.831 1.024-2.379 2.033-2.759a2.756 2.756 0 0 1 2.882.71c.845 1 .743 2.926-.657 4.354h-1.711l.964-1.445-1.664-1.11-1.703 2.556h-3.465v-2h-2v2h-5.642a1.963 1.963 0 0 1 -.529-2.44 1.726 1.726 0 0 1 1.83-.621 2.185 2.185 0 0 1 .936 1.013c.276.456.734 1.22 1.62 1.025 1.017-.224 1.022-1.282 1.026-2.132.003-.728.008-1.724.427-2.102zm-8.668-4.743h7a3.976 3.976 0 0 0 1.124 2.768 2.935 2.935 0 0 0 -.792.489 3.557 3.557 0 0 0 -1.042 2.364 3 3 0 0 0 -.948-.56 3.709 3.709 0 0 0 -4.171 1.379 3.9 3.9 0 0 0 .853 5.04 8.982 8.982 0 0 0 3.332 6.52h-5.356zm-7-15a1 1 0 0 1 1 1v3a1 1 0 0 1 -1 1h-5v-5zm-5-2v-4.1a5 5 0 0 0 2 0v4.1zm-2-9c0-1.975 1.609-5 3-5s3 3.025 3 5a3 3 0 0 1 -6 0zm5 30a3 3 0 0 1 -3-3v-9h4v7a1 1 0 0 0 1 1h5v4zm-3 9c0-.49.125-.948 1.027-.973h.01a.917.917 0 0 1 .563.295 1.238 1.238 0 0 1 .4.786 2.9 2.9 0 0 0 2.893 2.892h4.107a1 1 0 0 1 0 2h-6a3 3 0 0 1 -3-3zm51 9h-56v-2h56z"/><path d="m28 26h5.184a3 3 0 0 0 2.816 2h1v-2h-1a1 1 0 0 1 0-2h1v-2h-1a3 3 0 0 0 -2.816 2h-5.184z"/></g></svg>